<?xml version="1.0" encoding="UTF-8" standalone="no"?>
<svg
   xmlns:dc="http://purl.org/dc/elements/1.1/"
   xmlns:cc="http://creativecommons.org/ns#"
   xmlns:rdf="http://www.w3.org/1999/02/22-rdf-syntax-ns#"
   xmlns:svg="http://www.w3.org/2000/svg"
   xmlns="http://www.w3.org/2000/svg"
   id="svg34"
   version="1.1"
   width="252.6"
   viewBox="0 0 252.6 252.6"
   height="252.6"
   enable-background="new 0 0 252.6 252.6">
  <metadata
     id="metadata40">
    <rdf:RDF>
      <cc:Work
         rdf:about="">
        <dc:format>image/svg+xml</dc:format>
        <dc:type
           rdf:resource="http://purl.org/dc/dcmitype/StillImage" />
      </cc:Work>
    </rdf:RDF>
  </metadata>
  <defs
     id="defs38" />
  <path
     id="path2"
     fill="none"
     d="m0 0h252.6v252.6h-252.6z" />
  <g
     id="g32"
     fill="#dad490">
    <path
       id="path4"
       opacity=".3"
       d="m35.9 211.2h-23.9l-12 20.7 12 20.7h23.9l12-20.7zm-21.8 37.6-9.8-17 9.8-17h19.6l9.8 17-9.8 17z" />
    <path
       id="path6"
       opacity=".3"
       d="m76.8 190.4h-23.9l-12 20.7 12 20.7h23.9l12-20.7zm-21.7 37.7-9.8-17 9.8-17h19.6l9.8 17-9.8 17z" />
    <path
       id="path8"
       opacity=".3"
       d="m117.8 211.2h-23.9l-12 20.7 12 20.7h23.9l12-20.7zm-21.8 37.6-9.8-17 9.8-17h19.6l9.8 17-9.8 17z" />
    <path
       id="path10"
       opacity=".3"
       d="m158.7 190.4h-23.9l-12 20.7 12 20.7h23.9l12-20.7zm-21.7 37.7-9.8-17 9.8-17h19.6l9.8 17-9.8 17z" />
    <path
       id="path12"
       opacity=".3"
       d="m199.7 211.2h-23.9l-12 20.7 12 20.7h23.9l12-20.7zm-21.8 37.6-9.8-17 9.8-17h19.6l9.8 17-9.8 17z" />
    <path
       id="path14"
       opacity=".3"
       d="m240.6 190.4h-23.9l-12 20.7 12 20.7h23.9l12-20.7zm-21.7 37.7-9.8-17 9.8-17h19.6l9.8 17-9.8 17z" />
    <path
       id="path16"
       opacity=".3"
       d="m76.8 145.2h-23.9l-12 20.7 12 20.7h23.9l12-20.7zm-21.7 37.6-9.8-17 9.8-17h19.6l9.8 17-9.8 17z" />
    <path
       id="path18"
       opacity=".3"
       d="m117.8 165.9h-23.9l-12 20.7 12 20.7h23.9l12-20.7zm-21.8 37.7-9.8-17 9.8-17h19.6l9.8 17-9.8 17z" />
    <path
       id="path20"
       opacity=".3"
       d="m158.7 145.2h-23.9l-12 20.7 12 20.7h23.9l12-20.7zm-21.7 37.6-9.8-17 9.8-17h19.6l9.8 17-9.8 17z" />
    <path
       id="path22"
       opacity=".3"
       d="m199.7 165.9h-23.9l-12 20.7 12 20.7h23.9l12-20.7zm-21.8 37.7-9.8-17 9.8-17h19.6l9.8 17-9.8 17z" />
    <path
       id="path24"
       opacity=".3"
       d="m240.6 145.2h-23.9l-12 20.7 12 20.7h23.9l12-20.7zm-21.7 37.6-9.8-17 9.8-17h19.6l9.8 17-9.8 17z" />
    <path
       id="path26"
       opacity=".3"
       d="m117.8 120.6h-23.9l-12 20.7 12 20.7h23.9l12-20.7zm-21.8 37.7-9.8-17 9.8-17h19.6l9.8 17-9.8 17z" />
    <path
       id="path28"
       opacity=".3"
       d="m199.7 120.6h-23.9l-12 20.7 12 20.7h23.9l12-20.7zm-21.8 37.7-9.8-17 9.8-17h19.6l9.8 17-9.8 17z" />
    <path
       id="path30"
       opacity=".3"
       d="m240.6 99.9h-23.9l-12 20.7 12 20.7h23.9l12-20.7zm-21.7 37.7-9.8-17 9.8-17h19.6l9.8 17-9.8 17z" />
  </g>
</svg>
